<svg width="50" height="51" viewBox="0 0 50 51" fill="none" xmlns="http://www.w3.org/2000/svg">
<g clip-path="url(#clip0_405_726)">
<path d="M1.55498 17.0317C0.550098 19.7401 0 22.6693 0 25.7273C0 28.7853 0.550098 31.7147 1.55498 34.4229L25 36.5968L48.445 34.4229C49.4499 31.7147 50 28.7853 50 25.7273C50 22.6693 49.4499 19.7401 48.445 17.0317L25 14.8577L1.55498 17.0317Z" fill="#F0F0F0"/>
<path d="M25 0.727264C14.251 0.727264 5.08728 7.51164 1.55505 17.0317H48.4452C44.9127 7.51164 35.7492 0.727264 25 0.727264Z" fill="#D80027"/>
<path d="M25 50.7273C35.7492 50.7273 44.9127 43.9429 48.4451 34.4229H1.55505C5.08728 43.9429 14.251 50.7273 25 50.7273Z" fill="#6DA544"/>
</g>
<defs>
<clipPath id="clip0_405_726">
<rect width="50" height="50" fill="white" transform="translate(0 0.727264)"/>
</clipPath>
</defs>
</svg>
